<svg width="16" height="16" viewBox="0 0 16 16" fill="none" xmlns="http://www.w3.org/2000/svg">
<path d="M6 5.86V10.14C6 10.46 6.14 10.6933 6.42 10.84C6.7 10.9867 6.97333 10.9733 7.24 10.8L10.56 8.68C10.8133 8.53333 10.94 8.30667 10.94 8C10.94 7.69333 10.8133 7.46667 10.56 7.32L7.24 5.2C6.97333 5.02667 6.7 5.01333 6.42 5.16C6.14 5.30667 6 5.54 6 5.86ZM8 16C6.89333 16 5.85333 15.7899 4.88 15.3696C3.90667 14.9499 3.06 14.38 2.34 13.66C1.62 12.94 1.05013 12.0933 0.6304 11.12C0.210133 10.1467 0 9.10667 0 8C0 6.89333 0.210133 5.85333 0.6304 4.88C1.05013 3.90667 1.62 3.06 2.34 2.34C3.06 1.62 3.90667 1.04987 4.88 0.6296C5.85333 0.209867 6.89333 0 8 0C9.10667 0 10.1467 0.209867 11.12 0.6296C12.0933 1.04987 12.94 1.62 13.66 2.34C14.38 3.06 14.9499 3.90667 15.3696 4.88C15.7899 5.85333 16 6.89333 16 8C16 9.10667 15.7899 10.1467 15.3696 11.12C14.9499 12.0933 14.38 12.94 13.66 13.66C12.94 14.38 12.0933 14.9499 11.12 15.3696C10.1467 15.7899 9.10667 16 8 16ZM8 14.4C9.77333 14.4 11.2835 13.7768 12.5304 12.5304C13.7768 11.2835 14.4 9.77333 14.4 8C14.4 6.22667 13.7768 4.71653 12.5304 3.4696C11.2835 2.2232 9.77333 1.6 8 1.6C6.22667 1.6 4.7168 2.2232 3.4704 3.4696C2.22347 4.71653 1.6 6.22667 1.6 8C1.6 9.77333 2.22347 11.2835 3.4704 12.5304C4.7168 13.7768 6.22667 14.4 8 14.4Z" fill="white"/>
</svg>
