<svg width="16" height="16" viewBox="0 0 16 16" fill="none" xmlns="http://www.w3.org/2000/svg">
<path d="M16 8C16 9.08333 15.7882 10.1181 15.3646 11.1042C14.941 12.0903 14.3715 12.941 13.6562 13.6562C12.941 14.3715 12.0903 14.941 11.1042 15.3646C10.1181 15.7882 9.08333 16 8 16C6.80556 16 5.67014 15.7483 4.59375 15.2448C3.51736 14.7413 2.60069 14.0312 1.84375 13.1146C1.79514 13.0451 1.77257 12.967 1.77604 12.8802C1.77951 12.7934 1.80903 12.7222 1.86458 12.6667L3.29167 11.2292C3.36111 11.1667 3.44792 11.1354 3.55208 11.1354C3.66319 11.1493 3.74306 11.191 3.79167 11.2604C4.29861 11.9201 4.92014 12.4306 5.65625 12.7917C6.39236 13.1528 7.17361 13.3333 8 13.3333C8.72222 13.3333 9.41146 13.1927 10.0677 12.9115C10.724 12.6302 11.2917 12.25 11.7708 11.7708C12.25 11.2917 12.6302 10.724 12.9115 10.0677C13.1927 9.41146 13.3333 8.72222 13.3333 8C13.3333 7.27778 13.1927 6.58854 12.9115 5.93229C12.6302 5.27604 12.25 4.70833 11.7708 4.22917C11.2917 3.75 10.724 3.36979 10.0677 3.08854C9.41146 2.80729 8.72222 2.66667 8 2.66667C7.31944 2.66667 6.66667 2.78993 6.04167 3.03646C5.41667 3.28299 4.86111 3.63542 4.375 4.09375L5.80208 5.53125C6.01736 5.73958 6.06597 5.97917 5.94792 6.25C5.82986 6.52778 5.625 6.66667 5.33333 6.66667H0.666667C0.486111 6.66667 0.329861 6.60069 0.197917 6.46875C0.0659722 6.33681 0 6.18056 0 6V1.33333C0 1.04167 0.138889 0.836806 0.416667 0.71875C0.6875 0.600694 0.927083 0.649306 1.13542 0.864583L2.48958 2.20833C3.23264 1.50694 4.0816 0.963542 5.03646 0.578125C5.99132 0.192708 6.97917 0 8 0C9.08333 0 10.1181 0.211806 11.1042 0.635417C12.0903 1.05903 12.941 1.62847 13.6562 2.34375C14.3715 3.05903 14.941 3.90972 15.3646 4.89583C15.7882 5.88194 16 6.91667 16 8Z" fill="white"/>
</svg>
