<svg width="24" height="14" viewBox="0 0 24 14" fill="none" xmlns="http://www.w3.org/2000/svg">
<path d="M15.47 6.293C15.3772 6.20009 15.2669 6.12638 15.1456 6.07607C15.0243 6.02576 14.8942 5.99985 14.7629 5.9998C14.6315 5.99975 14.5014 6.02558 14.3801 6.0758C14.2587 6.12602 14.1484 6.19966 14.0555 6.2925C13.9626 6.38535 13.8889 6.49558 13.8386 6.61691C13.7883 6.73825 13.7623 6.8683 13.7623 6.99965C13.7623 7.131 13.7881 7.26107 13.8383 7.38244C13.8885 7.5038 13.9622 7.61409 14.055 7.707C14.2425 7.89464 14.4969 8.00011 14.7621 8.0002C15.0274 8.0003 15.2819 7.89501 15.4695 7.7075C15.6571 7.51999 15.7626 7.26563 15.7627 7.00036C15.7628 6.73509 15.6575 6.48064 15.47 6.293ZM16.177 4.172C16.2692 4.07649 16.3796 4.00031 16.5016 3.9479C16.6236 3.89549 16.7548 3.86791 16.8876 3.86675C17.0204 3.8656 17.1521 3.8909 17.275 3.94118C17.3979 3.99146 17.5095 4.06571 17.6034 4.15961C17.6973 4.2535 17.7715 4.36515 17.8218 4.48805C17.8721 4.61094 17.8974 4.74262 17.8962 4.8754C17.8951 5.00818 17.8675 5.1394 17.8151 5.26141C17.7627 5.38341 17.6865 5.49376 17.591 5.586C17.4024 5.76816 17.1498 5.86896 16.8876 5.86668C16.6254 5.8644 16.3746 5.75923 16.1892 5.57382C16.0038 5.38841 15.8986 5.1376 15.8963 4.8754C15.894 4.61321 15.9948 4.3606 16.177 4.172ZM19.712 6.293C19.6198 6.19749 19.5094 6.12131 19.3874 6.0689C19.2654 6.01649 19.1342 5.98891 19.0014 5.98775C18.8686 5.9866 18.7369 6.0119 18.614 6.06218C18.4911 6.11246 18.3795 6.18671 18.2856 6.28061C18.1917 6.3745 18.1175 6.48615 18.0672 6.60905C18.0169 6.73194 17.9916 6.86362 17.9928 6.9964C17.9939 7.12918 18.0215 7.2604 18.0739 7.38241C18.1263 7.50441 18.2025 7.61476 18.298 7.707C18.4866 7.88916 18.7392 7.98995 19.0014 7.98768C19.2636 7.9854 19.5144 7.88023 19.6998 7.69482C19.8852 7.50941 19.9904 7.2586 19.9927 6.9964C19.995 6.73421 19.8942 6.4816 19.712 6.293ZM16.177 8.414C16.2699 8.32116 16.3802 8.24752 16.5016 8.1973C16.6229 8.14708 16.753 8.12125 16.8844 8.1213C17.0157 8.12135 17.1458 8.14726 17.2671 8.19757C17.3884 8.24788 17.4987 8.32159 17.5915 8.4145C17.6843 8.50741 17.758 8.6177 17.8082 8.73907C17.8584 8.86044 17.8842 8.99051 17.8842 9.12186C17.8842 9.2532 17.8582 9.38326 17.8079 9.50459C17.7576 9.62592 17.6839 9.73616 17.591 9.829C17.4034 10.0165 17.1489 10.1218 16.8836 10.1217C16.6184 10.1216 16.364 10.0161 16.1765 9.8285C15.989 9.64086 15.8837 9.38642 15.8838 9.12115C15.8839 8.85588 15.9894 8.60151 16.177 8.414ZM6 8H4V6H6V4H8V6H10V8H8V10H6V8Z" fill="white"/>
<path fill-rule="evenodd" clip-rule="evenodd" d="M7 0C5.14348 2.76642e-08 3.36301 0.737498 2.05025 2.05025C0.737498 3.36301 0 5.14348 0 7C0 8.85651 0.737498 10.637 2.05025 11.9497C3.36301 13.2625 5.14348 14 7 14H17C17.9193 14 18.8295 13.8189 19.6788 13.4672C20.5281 13.1154 21.2997 12.5998 21.9497 11.9497C22.5998 11.2997 23.1154 10.5281 23.4672 9.67878C23.8189 8.8295 24 7.91925 24 7C24 6.08075 23.8189 5.17049 23.4672 4.32122C23.1154 3.47194 22.5998 2.70026 21.9497 2.05025C21.2997 1.40024 20.5281 0.884626 19.6788 0.532843C18.8295 0.18106 17.9193 -1.36979e-08 17 0H7ZM17 2H7C5.67392 2 4.40215 2.52678 3.46447 3.46447C2.52678 4.40215 2 5.67392 2 7C2 8.32608 2.52678 9.59785 3.46447 10.5355C4.40215 11.4732 5.67392 12 7 12H17C18.3261 12 19.5979 11.4732 20.5355 10.5355C21.4732 9.59785 22 8.32608 22 7C22 5.67392 21.4732 4.40215 20.5355 3.46447C19.5979 2.52678 18.3261 2 17 2Z" fill="white"/>
</svg>
